# This file uses meters as units for non-parametric coordinates.

mtllib Test_DB_Tex.mtl
g default
v -733.844543 252.371033 542.006836
v 266.155457 252.371033 542.006836
v -733.844543 1252.371094 542.006836
v 266.155457 1252.371094 542.006836
v -733.844543 1252.371094 -457.993134
v 266.155457 1252.371094 -457.993134
v -733.844543 252.371033 -457.993134
v 266.155457 252.371033 -457.993134
v -733.844543 252.371033 542.006836
v 266.155457 252.371033 542.006836
v -733.844543 1252.371094 542.006836
v 266.155457 1252.371094 542.006836
v -733.844543 1252.371094 -457.993134
v 266.155457 1252.371094 -457.993134
v -733.844543 252.371033 -457.993134
v 266.155457 252.371033 -457.993134
vt 0.375000 0.000000
vt 0.625000 0.000000
vt 0.375000 0.250000
vt 0.625000 0.250000
vt 0.375000 0.500000
vt 0.625000 0.500000
vt 0.375000 0.750000
vt 0.625000 0.750000
vt 0.375000 1.000000
vt 0.625000 1.000000
vt 0.875000 0.000000
vt 0.875000 0.250000
vt 0.125000 0.000000
vt 0.125000 0.250000
vt 0.375000 0.000000
vt 0.375000 0.250000
vt 0.625000 0.250000
vt 0.625000 0.000000
vt 0.375000 0.500000
vt 0.625000 0.500000
vt 0.375000 0.750000
vt 0.625000 0.750000
vt 0.375000 1.000000
vt 0.625000 1.000000
vt 0.875000 0.250000
vt 0.875000 0.000000
vt 0.125000 0.000000
vt 0.125000 0.250000
vn 0.000000 0.000000 1.000000
vn 0.000000 0.000000 1.000000
vn 0.000000 0.000000 1.000000
vn 0.000000 0.000000 1.000000
vn 0.000000 1.000000 0.000000
vn 0.000000 1.000000 0.000000
vn 0.000000 1.000000 0.000000
vn 0.000000 1.000000 0.000000
vn 0.000000 0.000000 -1.000000
vn 0.000000 0.000000 -1.000000
vn 0.000000 0.000000 -1.000000
vn 0.000000 0.000000 -1.000000
vn 0.000000 -1.000000 0.000000
vn 0.000000 -1.000000 0.000000
vn 0.000000 -1.000000 0.000000
vn 0.000000 -1.000000 0.000000
vn 1.000000 0.000000 0.000000
vn 1.000000 0.000000 0.000000
vn 1.000000 0.000000 0.000000
vn 1.000000 0.000000 0.000000
vn -1.000000 0.000000 0.000000
vn -1.000000 0.000000 0.000000
vn -1.000000 0.000000 0.000000
vn -1.000000 0.000000 0.000000
vn 0.000000 0.000000 -1.000000
vn 0.000000 0.000000 -1.000000
vn 0.000000 0.000000 -1.000000
vn 0.000000 0.000000 -1.000000
vn 0.000000 -1.000000 0.000000
vn 0.000000 -1.000000 0.000000
vn 0.000000 -1.000000 0.000000
vn 0.000000 -1.000000 0.000000
vn 0.000000 0.000000 1.000000
vn 0.000000 0.000000 1.000000
vn 0.000000 0.000000 1.000000
vn 0.000000 0.000000 1.000000
vn 0.000000 1.000000 0.000000
vn 0.000000 1.000000 0.000000
vn 0.000000 1.000000 0.000000
vn 0.000000 1.000000 0.000000
vn -1.000000 0.000000 0.000000
vn -1.000000 0.000000 0.000000
vn -1.000000 0.000000 0.000000
vn -1.000000 0.000000 0.000000
vn 1.000000 0.000000 0.000000
vn 1.000000 0.000000 0.000000
vn 1.000000 0.000000 0.000000
vn 1.000000 0.000000 0.000000
s off
g Test_01_sm Test_01
usemtl Mat_UV1BNS_SG
f 1/1/1 2/2/2 4/4/3 3/3/4
f 3/3/5 4/4/6 6/6/7 5/5/8
f 5/5/9 6/6/10 8/8/11 7/7/12
f 7/7/13 8/8/14 2/10/15 1/9/16
f 2/2/17 8/11/18 6/12/19 4/4/20
f 7/13/21 1/1/22 3/3/23 5/14/24
f 9/15/25 11/16/26 12/17/27 10/18/28
f 11/16/29 13/19/30 14/20/31 12/17/32
f 13/19/33 15/21/34 16/22/35 14/20/36
f 15/21/37 9/23/38 10/24/39 16/22/40
f 10/18/41 12/17/42 14/25/43 16/26/44
f 15/27/45 13/28/46 11/16/47 9/15/48
g default
v -983.844543 2.371033 792.006836
v 516.155457 2.371033 792.006836
v -983.844543 1502.371094 792.006836
v 516.155457 1502.371094 792.006836
v -983.844543 1502.371094 -707.993164
v 516.155457 1502.371094 -707.993164
v -983.844543 2.371033 -707.993164
v 516.155457 2.371033 -707.993164
v -983.844543 2.371033 792.006836
v 516.155457 2.371033 792.006836
v -983.844543 1502.371094 792.006836
v 516.155457 1502.371094 792.006836
v -983.844543 1502.371094 -707.993164
v 516.155457 1502.371094 -707.993164
v -983.844543 2.371033 -707.993164
v 516.155457 2.371033 -707.993164
vt 0.112919 0.417918
vt 0.354897 0.417918
vt 0.354897 0.659896
vt 0.112919 0.659896
vt 0.751925 0.417918
vt 0.913243 0.557624
vt 0.799173 0.755199
vt 0.637855 0.615493
vt 0.140619 0.416093
vt 0.000912 0.254774
vt 0.000912 0.115068
vt 0.140619 0.276387
vt 0.198487 0.000998
vt 0.338194 0.162317
vt 0.338194 0.302024
vt 0.000912 0.661721
vt 0.229052 0.661721
vt 0.229052 0.903699
vt 0.000912 0.903699
vt 0.680445 0.162317
vt 0.680445 0.302024
vt 0.540739 0.140705
vt 0.540739 0.000998
vt 0.482870 0.416093
vt 0.343164 0.254774
vt 0.343164 0.115068
vt 0.234484 0.999002
vt 0.234484 0.757023
vt 0.476463 0.757023
vt 0.476463 0.999002
vt 0.358681 0.615493
vt 0.472752 0.417918
vt 0.634070 0.557624
vt 0.520000 0.755199
vt 0.708489 0.757023
vt 0.708489 0.999002
vt 0.480350 0.999002
vt 0.480350 0.757023
vn 0.000000 0.000000 1.000000
vn 0.000000 0.000000 1.000000
vn 0.000000 0.000000 1.000000
vn 0.000000 0.000000 1.000000
vn 0.000000 1.000000 0.000000
vn 0.000000 1.000000 0.000000
vn 0.000000 1.000000 0.000000
vn 0.000000 1.000000 0.000000
vn 0.000000 0.000000 -1.000000
vn 0.000000 0.000000 -1.000000
vn 0.000000 0.000000 -1.000000
vn 0.000000 0.000000 -1.000000
vn 0.000000 -1.000000 0.000000
vn 0.000000 -1.000000 0.000000
vn 0.000000 -1.000000 0.000000
vn 0.000000 -1.000000 0.000000
vn 1.000000 0.000000 0.000000
vn 1.000000 0.000000 0.000000
vn 1.000000 0.000000 0.000000
vn 1.000000 0.000000 0.000000
vn -1.000000 0.000000 0.000000
vn -1.000000 0.000000 0.000000
vn -1.000000 0.000000 0.000000
vn -1.000000 0.000000 0.000000
vn 0.000000 0.000000 -1.000000
vn 0.000000 0.000000 -1.000000
vn 0.000000 0.000000 -1.000000
vn 0.000000 0.000000 -1.000000
vn 0.000000 -1.000000 0.000000
vn 0.000000 -1.000000 0.000000
vn 0.000000 -1.000000 0.000000
vn 0.000000 -1.000000 0.000000
vn 0.000000 0.000000 1.000000
vn 0.000000 0.000000 1.000000
vn 0.000000 0.000000 1.000000
vn 0.000000 0.000000 1.000000
vn 0.000000 1.000000 0.000000
vn 0.000000 1.000000 0.000000
vn 0.000000 1.000000 0.000000
vn 0.000000 1.000000 0.000000
vn -1.000000 0.000000 0.000000
vn -1.000000 0.000000 0.000000
vn -1.000000 0.000000 0.000000
vn -1.000000 0.000000 0.000000
vn 1.000000 0.000000 0.000000
vn 1.000000 0.000000 0.000000
vn 1.000000 0.000000 0.000000
vn 1.000000 0.000000 0.000000
s off
g Test_01 Test_01_b
usemtl Mat_UV1BNS_SG
f 17/29/49 18/30/50 20/31/51 19/32/52
f 19/33/53 20/34/54 22/35/55 21/36/56
f 21/37/57 22/38/58 24/39/59 23/40/60
f 23/40/61 24/39/62 18/41/63 17/42/64
f 18/44/65 24/45/66 22/46/67 20/47/68
f 23/40/69 17/42/70 19/43/71 21/37/72
f 25/48/73 27/49/74 28/50/75 26/51/76
f 27/49/77 29/52/78 30/53/79 28/50/80
f 29/55/81 31/56/82 32/57/83 30/58/84
f 31/59/85 25/60/86 26/61/87 32/62/88
f 26/51/89 28/50/90 30/53/91 32/54/92
f 31/63/93 29/64/94 27/65/95 25/66/96
